#!OML:ASF H:\Not Pregnant\Project 1\Capture day 1\Session 1\non-pregnant.ASF
:FULLY-SPECIFIED
:DEGREES
517
root -8.7254 16.8759 -25.8855 -171.152 7.38418 -179.768
lowerback 1.24883 0.612127 -0.753211
upperback -6.9136 1.22333 0.401464
thorax -7.95065 0.841399 0.718738
lowerneck 15.3855 -10.9871 -30.5263
upperneck -5.84629 -17.379 42.3295
head 3.40482 -9.70166 21.3156
rclavicle 3.14949e-015 -2.48481e-015
rhumerus -39.8519 -16.2674 -75.0778
rradius 21.6967
rwrist 30.2258
rhand -6.76317 -0.524186
rfingers 7.12502
rthumb 19.0986 -29.6065
lclavicle 3.14949e-015 -2.48481e-015
lhumerus -37.0915 -7.22885 85.918
lradius 36.2985
lwrist 37.7784
lhand -16.7763 -12.6066
lfingers 7.12502
lthumb 9.45123 17.1615
rfemur -30.4259 0.723059 19.1298
rtibia 51.3987
rfoot -16.8128 10.6155
rtoes -24.407
lfemur -26.7139 5.86993 -24.5275
ltibia 32.6884
lfoot -14.4797 -7.47392
ltoes -11.8644
518
root -8.72448 16.8762 -25.9369 -171.118 7.3117 -179.763
lowerback 1.29729 0.519996 -0.796362
upperback -6.90591 1.09565 0.425003
thorax -7.96931 0.781158 0.777476
lowerneck 15.3113 -10.9869 -30.4923
upperneck -5.84102 -17.353 42.3574
head 3.41025 -9.68133 21.3246
rclavicle -7.01337e-015 -3.18055e-015
rhumerus -39.8657 -15.9648 -75.2041
rradius 21.891
rwrist 29.8781
rhand -6.72385 -0.522977
rfingers 7.12502
rthumb 19.1364 -29.6015
lclavicle -7.01337e-015 -3.18055e-015
lhumerus -36.8079 -7.07374 85.6645
lradius 36.6086
lwrist 38.0685
lhand -16.8492 -12.6454
lfingers 7.12502
lthumb 9.38088 17.1258
rfemur -30.7238 0.798656 19.1452
rtibia 50.7112
rfoot -17.2526 9.74683
rtoes -24.5187
lfemur -26.5632 5.91043 -24.5413
ltibia 32.7289
lfoot -14.7186 -7.48159
ltoes -12.1677
519
root -8.72282 16.8768 -25.9872 -171.083 7.21607 -179.726
lowerback 1.34394 0.422754 -0.810043
upperback -6.90062 0.963956 0.459451
thorax -7.98886 0.717703 0.831659
lowerneck 15.2511 -10.9852 -30.4678
upperneck -5.83947 -17.3305 42.3844
head 3.4145 -9.66465 21.3359
rclavicle 1.34801e-014 2.98177e-015
rhumerus -39.8699 -15.6886 -75.3208
rradius 22.0791
rwrist 29.5726
rhand -6.70365 -0.509159
rfingers 7.12502
rthumb 19.1558 -29.5858
lclavicle 1.34801e-014 2.98177e-015
lhumerus -36.5343 -6.90625 85.4098
lradius 36.9351
lwrist 38.4103
lhand -16.8485 -12.6219
lfingers 7.12502
lthumb 9.38156 17.1494
rfemur -30.9677 0.867239 19.2003
rtibia 49.9817
rfoot -17.6373 8.96263
rtoes -24.5388
lfemur -26.4174 5.91873 -24.51
ltibia 32.7679
lfoot -14.9368 -7.48619
ltoes -12.3613
520
root -8.72004 16.8777 -26.0368 -171.042 7.09696 -179.671
lowerback 1.37409 0.320846 -0.810292
upperback -6.89799 0.82815 0.50027
thorax -8.0012 0.651981 0.885658
lowerneck 15.2137 -10.979 -30.4523
upperneck -5.84788 -17.3055 42.4195
head 3.41337 -9.64945 21.3578
rclavicle 1.17594e-014 5.06901e-015
rhumerus -39.8675 -15.4306 -75.4356
rradius 22.2656
rwrist 29.2866
rhand -6.70199 -0.492019
rfingers 7.12502
rthumb 19.1574 -29.5685
lclavicle 1.17594e-014 5.06901e-015
lhumerus -36.2734 -6.75686 85.1714
lradius 37.2571
lwrist 38.8112
lhand -16.8049 -12.5956
lfingers 7.12502
lthumb 9.42363 17.1737
rfemur -31.1613 0.931065 19.2813
rtibia 49.2188
rfoot -17.9665 8.29121
rtoes -24.4908
lfemur -26.2807 5.9014 -24.4505
ltibia 32.8079
lfoot -15.1472 -7.4841
ltoes -12.5339
521
root -8.71653 16.8787 -26.0859 -170.996 6.95388 -179.612
lowerback 1.38374 0.21137 -0.808438
upperback -6.89961 0.683817 0.545136
thorax -8.00577 0.582569 0.943661
lowerneck 15.2039 -10.9662 -30.4528
upperneck -5.86656 -17.2795 42.4584
head 3.40633 -9.63729 21.3894
rclavicle 3.0998e-015 -2.98177e-015
rhumerus -39.8591 -15.1836 -75.5473
rradius 22.4463
rwrist 29.0167
rhand -6.72325 -0.472728
rfingers 7.12502
rthumb 19.137 -29.5512
lclavicle 3.0998e-015 -2.98177e-015
lhumerus -36.0368 -6.62398 84.9561
lradius 37.5624
lwrist 39.2201
lhand -16.7388 -12.6447
lfingers 7.12502
lthumb 9.4874 17.1217
rfemur -31.3058 0.97395 19.3709
rtibia 48.4329
rfoot -18.241 7.75989
rtoes -24.3914
lfemur -26.1524 5.84923 -24.3807
ltibia 32.8495
lfoot -15.3449 -7.47675
ltoes -12.6645
522
root -8.71243 16.8797 -26.1347 -170.944 6.78887 -179.549
lowerback 1.38768 0.101274 -0.797872
upperback -6.91269 0.540664 0.586951
thorax -8.01911 0.513862 0.99341
lowerneck 15.2108 -10.958 -30.4511
upperneck -5.87959 -17.2649 42.489
head 3.40065 -9.63209 21.414
rclavicle 8.16881e-015 5.76476e-015
rhumerus -39.8704 -14.9565 -75.6546
rradius 22.6341
rwrist 28.7506
rhand -6.76465 -0.464935
rfingers 7.12502
rthumb 19.0972 -29.5474
lclavicle 8.16881e-015 5.76476e-015
lhumerus -35.8315 -6.53436 84.7701
lradius 37.839
lwrist 39.5959
lhand -16.6613 -12.7961
lfingers 7.12502
lthumb 9.56214 16.9669
rfemur -31.4031 0.99211 19.4704
rtibia 47.6362
rfoot -18.4639 7.38128
rtoes -24.2629
lfemur -26.032 5.76046 -24.3
ltibia 32.8926
lfoot -15.529 -7.46452
ltoes -12.7444
523
root -8.70779 16.8803 -26.1836 -170.892 6.60634 -179.491
lowerback 1.36188 -0.0120994 -0.789662
upperback -6.92206 0.393423 0.628219
thorax -8.01073 0.443311 1.04443
lowerneck 15.2359 -10.9449 -30.4599
upperneck -5.89974 -17.2482 42.5227
head 3.39055 -9.62819 21.4459
rclavicle -2.86995e-015 -3.18055e-015
rhumerus -39.8763 -14.7362 -75.7624
rradius 22.8209
rwrist 28.4804
rhand -6.82835 -0.472471
rfingers 7.12502
rthumb 19.0359 -29.5609
lclavicle -2.86995e-015 -3.18055e-015
lhumerus -35.6355 -6.48954 84.6212
lradius 38.0831
lwrist 39.9163
lhand -16.6276 -13.0367
lfingers 7.12502
lthumb 9.59464 16.7249
rfemur -31.448 0.98324 19.5705
rtibia 46.8397
rfoot -18.6312 7.15873
rtoes -24.127
lfemur -25.9112 5.6379 -24.2193
ltibia 32.9365
lfoot -15.6972 -7.46273
ltoes -12.7329
524
root -8.70233 16.8805 -26.2322 -170.84 6.40819 -179.447
lowerback 1.30873 -0.127142 -0.797702
upperback -6.92885 0.243412 0.667409
thorax -7.9833 0.372417 1.10253
lowerneck 15.284 -10.9299 -30.4842
upperneck -5.92897 -17.237 42.5598
head 3.37846 -9.63024 21.4847
rclavicle 6.06293e-015 1.2921e-015
rhumerus -39.8767 -14.5331 -75.8653
rradius 23.0062
rwrist 28.2102
rhand -6.90667 -0.492516
rfingers 7.12502
rthumb 18.9606 -29.5884
lclavicle 6.06293e-015 1.2921e-015
lhumerus -35.4343 -6.47491 84.4982
lradius 38.3037
lwrist 40.1786
lhand -16.6167 -13.2316
lfingers 7.12502
lthumb 9.6052 16.5294
rfemur -31.4505 0.950352 19.6634
rtibia 46.0554
rfoot -18.7353 7.08529
rtoes -23.9816
lfemur -25.7957 5.48841 -24.1485
ltibia 32.9831
lfoot -15.8509 -7.47248
ltoes -12.6432
525
root -8.69674 16.8801 -26.2814 -170.798 6.19974 -179.42
lowerback 1.215 -0.238078 -0.811009
upperback -6.91849 0.0970696 0.697424
thorax -7.91328 0.30247 1.15348
lowerneck 15.3391 -10.9221 -30.5133
upperneck -5.96907 -17.2373 42.6026
head 3.36892 -9.63955 21.5257
rclavicle -4.41053e-015 -8.94531e-015
rhumerus -39.8595 -14.3577 -75.9675
rradius 23.1926
rwrist 27.938
rhand -6.99974 -0.516437
rfingers 7.12502
rthumb 18.8711 -29.621
lclavicle -4.41053e-015 -8.94531e-015
lhumerus -35.2055 -6.49436 84.3957
lradius 38.506
lwrist 40.3672
lhand -16.6316 -13.3494
lfingers 7.12502
lthumb 9.59085 16.4123
rfemur -31.4003 0.884763 19.7431
rtibia 45.2946
rfoot -18.7698 7.16768
rtoes -23.7935
lfemur -25.6696 5.3206 -24.095
ltibia 33.0323
lfoot -15.999 -7.49394
ltoes -12.4709
526
root -8.69032 16.8791 -26.331 -170.759 5.98302 -179.4
lowerback 1.08517 -0.346667 -0.833206
upperback -6.89608 -0.0471292 0.72471
thorax -7.80896 0.233442 1.20585
lowerneck 15.3927 -10.9211 -30.5475
upperneck -6.01119 -17.2489 42.65
head 3.36559 -9.65482 21.5678
rclavicle 5.8393e-015 -5.26779e-015
rhumerus -39.8219 -14.2115 -76.065
rradius 23.3669
rwrist 27.6779
rhand -7.09421 -0.549168
rfingers 7.12502
rthumb 18.7802 -29.6626
lclavicle 5.8393e-015 -5.26779e-015
lhumerus -34.956 -6.56116 84.3208
lradius 38.7
lwrist 40.4659
lhand -16.7323 -13.348
lfingers 7.12502
lthumb 9.49361 16.4181
rfemur -31.3109 0.81149 19.8215
rtibia 44.573
rfoot -18.7124 7.38332
rtoes -23.4356
lfemur -25.5411 5.15335 -24.0467
ltibia 33.082
lfoot -16.1492 -7.52683
ltoes -12.2719
